<svg width="25" height="24" viewBox="0 0 25 24" fill="none" xmlns="http://www.w3.org/2000/svg">
<path d="M3.125 12C3.125 13.1819 3.36749 14.3522 3.83863 15.4442C4.30977 16.5361 5.00032 17.5282 5.87087 18.364C6.74142 19.1997 7.77492 19.8626 8.91234 20.3149C10.0498 20.7672 11.2689 21 12.5 21C13.7311 21 14.9502 20.7672 16.0877 20.3149C17.2251 19.8626 18.2586 19.1997 19.1291 18.364C19.9997 17.5282 20.6902 16.5361 21.1614 15.4442C21.6325 14.3522 21.875 13.1819 21.875 12C21.875 10.8181 21.6325 9.64778 21.1614 8.55585C20.6902 7.46392 19.9997 6.47177 19.1291 5.63604C18.2586 4.80031 17.2251 4.13738 16.0877 3.68508C14.9502 3.23279 13.7311 3 12.5 3C11.2689 3 10.0498 3.23279 8.91234 3.68508C7.77492 4.13738 6.74142 4.80031 5.87087 5.63604C5.00032 6.47177 4.30977 7.46392 3.83863 8.55585C3.36749 9.64778 3.125 10.8181 3.125 12Z" stroke="#F2695C" stroke-width="2" stroke-linecap="round" stroke-linejoin="round"/>
<path d="M12.5 12L15.625 14" stroke="#F2695C" stroke-width="2" stroke-linecap="round" stroke-linejoin="round"/>
<path d="M12.5 7V12" stroke="#F2695C" stroke-width="2" stroke-linecap="round" stroke-linejoin="round"/>
</svg>
